<?xml version="1.0" encoding="UTF-8" standalone="no"?>
<!-- Created with Inkscape (http://www.inkscape.org/) -->

<svg
   width="75"
   height="75"
   viewBox="0 0 19.84375 19.84375"
   version="1.1"
   id="svg1"
   xml:space="preserve"
   inkscape:version="1.3.2 (091e20e, 2023-11-25, custom)"
   sodipodi:docname="leaf.svg"
   xmlns:inkscape="http://www.inkscape.org/namespaces/inkscape"
   xmlns:sodipodi="http://sodipodi.sourceforge.net/DTD/sodipodi-0.dtd"
   xmlns="http://www.w3.org/2000/svg"
   xmlns:svg="http://www.w3.org/2000/svg"><sodipodi:namedview
     id="namedview1"
     pagecolor="#ffffff"
     bordercolor="#666666"
     borderopacity="1.0"
     inkscape:showpageshadow="2"
     inkscape:pageopacity="0.0"
     inkscape:pagecheckerboard="0"
     inkscape:deskcolor="#d1d1d1"
     inkscape:document-units="mm"
     inkscape:zoom="7.8312671"
     inkscape:cx="29.624836"
     inkscape:cy="48.714977"
     inkscape:window-width="2400"
     inkscape:window-height="1261"
     inkscape:window-x="-9"
     inkscape:window-y="79"
     inkscape:window-maximized="1"
     inkscape:current-layer="layer1" /><defs
     id="defs1" /><g
     inkscape:label="Calque 1"
     inkscape:groupmode="layer"
     id="layer1"><path
       style="fill:#d80621;fill-opacity:1;stroke-width:1.11169"
       d="M 10.727703,19.818248 C 10.628273,19.748598 10.459902,19.281389 10.282447,18.582679 9.9753426,17.373493 9.6884031,15.910775 9.6371753,14.147401 9.6239573,13.692463 9.1656027,13.687658 9.1554197,13.687658 c -0.021845,0 -2.603918,0.717969 -4.0033924,1.180666 -0.235146,0.07774 -0.4354282,0.133461 -0.4450733,0.123816 -0.00967,-0.0097 0.024591,-0.147685 0.076084,-0.306755 C 4.9005235,14.322458 4.9028992,14.20208 4.7940435,14.130716 4.7485642,14.100923 4.40388,14.025283 4.0280662,13.962624 3.6522535,13.899969 3.329583,13.844426 3.3110222,13.839196 c -0.018565,-0.0052 0.151757,-0.159999 0.378483,-0.34393 0.7452442,-0.60458 0.7907035,-0.6479 0.7907936,-0.753572 6.33e-5,-0.074 -0.064967,-0.159053 -0.2738695,-0.35816 C 4.0347253,12.21988 3.950608,12.116419 3.9810584,12.106337 4.0077834,12.097437 4.3459454,12.030117 4.7325381,11.95663 5.899867,11.734718 6.0504766,11.701577 5.9941417,11.679016 5.9644039,11.66711 5.6075489,11.559675 5.2011314,11.440277 4.7947128,11.32088 4.1621072,11.134562 3.7953393,11.026238 3.4285713,10.917915 2.9257313,10.770234 2.6779154,10.698059 2.4300994,10.625888 2.2121502,10.551993 2.1935827,10.533857 2.1728497,10.513602 2.2667098,10.391053 2.436893,10.216169 2.6091039,10.039206 2.7139608,9.9019542 2.7139608,9.8535034 2.7139608,9.7396774 2.5913802,9.6442476 2.113601,9.3861196 1.4155047,9.0089596 1.1911799,8.8720976 1.2235179,8.8430724 1.2403378,8.8279756 1.4383944,8.720134 1.6636441,8.6034241 2.0914083,8.3817829 2.196352,8.2853683 2.1591626,8.1481765 2.147034,8.1034254 1.9830463,7.8721624 1.7947503,7.6342592 1.4096061,7.1476465 0.94742059,6.554663 0.89491543,6.4797735 0.87579434,6.452496 0.867679,6.4231373 0.87689492,6.4145328 c 0.009227,-0.0086 0.48609238,0.031753 1.05973608,0.089685 0.5736436,0.057931 1.0633735,0.097506 1.0882898,0.087945 0.024913,-0.00956 0.072327,-0.058636 0.1053661,-0.1090547 0.054161,-0.082668 0.055862,-0.1398087 0.017287,-0.5818471 -0.023523,-0.2695972 -0.034907,-0.4980408 -0.025302,-0.5076524 0.00956,-0.00962 0.1447065,0.054315 0.300211,0.1420584 0.8805315,0.4968406 1.1527446,0.6387523 1.2230068,0.6375851 0.1384433,-0.0023 0.1947049,-0.094342 0.2879001,-0.4710018 0.050893,-0.2056665 0.098607,-0.3800267 0.1060442,-0.387467 0.00745,-0.00744 0.3347802,0.2699484 0.7274228,0.6164195 C 6.1594979,6.2776731 6.8132745,6.8545141 7.2196931,7.213071 7.6261118,7.5716284 7.9628563,7.8531333 7.9680145,7.8386381 7.9731283,7.8241427 7.8223597,7.1152903 7.6328731,6.2634104 7.0456279,3.623316 6.9323321,3.0974727 6.9474878,3.0823169 c 0.00567,-0.00568 0.1462952,0.029076 0.312483,0.077231 0.6847082,0.198406 0.6857632,0.1969429 0.6720405,-0.9320249 -0.00522,-0.4263506 0.00378,-0.7751739 0.019888,-0.7751631 0.01612,1.06e-5 0.214324,0.1216745 0.4404519,0.2703641 0.4229784,0.2781284 0.5410266,0.316412 0.6391,0.2072641 0.05185,-0.057704 0.2296066,-0.4547082 0.6939933,-1.54997513 0.09456,-0.22303422 0.1832645,-0.40551684 0.1971095,-0.40551684 0.013841,0 0.208134,0.42910503 0.431755,0.95356669 0.223621,0.52446158 0.434291,0.97864038 0.468154,1.00928628 0.106689,0.096549 0.204555,0.063038 0.626804,-0.2146247 0.226116,-0.1486896 0.429891,-0.2703446 0.452834,-0.2703446 0.03046,0 0.0408,0.2211358 0.03832,0.8200452 -0.0019,0.4510249 0.0076,0.8485713 0.02094,0.8834368 0.04298,0.111924 0.195219,0.1163144 0.573756,0.016546 0.197512,-0.052056 0.36423,-0.089531 0.370485,-0.083277 0.0062,0.00626 -0.02925,0.1879913 -0.0789,0.4038601 -0.236897,1.0300701 -0.960582,4.3480049 -0.95049,4.3577884 0.0063,0.00609 0.272351,-0.2185633 0.591265,-0.4992298 0.318914,-0.2806665 0.691387,-0.6076267 0.827718,-0.7265783 0.409786,-0.3575474 1.25179,-1.1039026 1.376447,-1.2200876 0.06413,-0.059777 0.126016,-0.099277 0.137514,-0.08778 0.0115,0.011497 0.04479,0.1239334 0.07399,0.2498577 0.09392,0.4050251 0.123268,0.4949599 0.180053,0.5517445 0.06156,0.061562 0.233126,0.074691 0.286643,0.021934 0.05785,-0.057036 1.360929,-0.7602608 1.377693,-0.7434959 0.0087,0.00866 -0.0026,0.2359793 -0.02502,0.5051649 -0.04304,0.5168127 -0.03057,0.5958271 0.105488,0.6686473 0.05106,0.027328 0.322068,0.01272 0.981426,-0.0529 0.500987,-0.049858 0.971713,-0.099108 1.046058,-0.1094438 0.08876,-0.01234 0.135172,-0.00456 0.135172,0.02268 0,0.022809 -0.08612,0.1487109 -0.191386,0.2797821 -0.753498,0.9382456 -1.106268,1.4115291 -1.106268,1.4841925 0,0.1102387 0.118688,0.2038498 0.534592,0.421645 0.224639,0.1176348 0.409516,0.2285228 0.410839,0.2464179 0.0013,0.017895 -0.312235,0.207331 -0.696799,0.420969 -0.384563,0.2136381 -0.719482,0.4154423 -0.744264,0.4484528 -0.08627,0.1149144 -0.04359,0.2007336 0.248766,0.5002574 0.196989,0.201818 0.277175,0.306817 0.24331,0.318601 -0.02778,0.0097 -0.253271,0.07613 -0.501087,0.147689 -1.022965,0.295403 -1.340701,0.388287 -1.838343,0.537406 -0.287467,0.08613 -0.701094,0.207979 -0.919172,0.270755 -0.704638,0.202838 -0.733587,0.1757 0.421398,0.395045 0.561242,0.106589 1.033591,0.201138 1.049665,0.210114 0.01608,0.009 -0.09341,0.132383 -0.24331,0.274237 -0.208824,0.19762 -0.272535,0.280744 -0.272535,0.355573 0,0.117013 0.0156,0.132111 0.67064,0.649094 0.283345,0.223625 0.516005,0.415888 0.517023,0.427249 0.001,0.01136 -0.318505,0.07435 -0.710055,0.139977 -0.391548,0.06562 -0.748403,0.141863 -0.79301,0.169415 -0.107734,0.06655 -0.104855,0.194615 0.01252,0.55722 0.05149,0.15907 0.08553,0.297307 0.07565,0.307193 -0.0099,0.0099 -0.137176,-0.02267 -0.282866,-0.07235 -0.145691,-0.04967 -0.686629,-0.22772 -1.202087,-0.395653 -0.515457,-0.167932 -1.518343,-0.494798 -2.228637,-0.726368 -0.710294,-0.231571 -0.912024,-0.288843 -0.918004,-0.282121 -0.006,0.0067 -0.356771,0.0086 -0.340691,0.365421 0.08175,1.82031 0.374441,3.782257 0.859903,5.159924 0.08706,0.247063 0.158291,0.501361 0.158291,0.565107 0,0.212068 -0.274762,0.339353 -0.457002,0.211708 z"
       id="path1"
       sodipodi:nodetypes="csssccscccssscccsscccsssscsccsscccssccsscscccssscsscssccscccsscssscccsssscsscssscccsscssscccsscssccsscc" /></g></svg>
